<?xml version="1.0" encoding="UTF-8" standalone="no"?>
<!DOCTYPE svg PUBLIC "-//W3C//DTD SVG 1.1//EN" "http://www.w3.org/Graphics/SVG/1.1/DTD/svg11.dtd">
<svg width="100%" height="100%" viewBox="0 0 128 128" version="1.1" xmlns="http://www.w3.org/2000/svg" xmlns:xlink="http://www.w3.org/1999/xlink" xml:space="preserve" xmlns:serif="http://www.serif.com/" style="fill-rule:evenodd;clip-rule:evenodd;stroke-linecap:round;stroke-linejoin:round;stroke-miterlimit:1.5;">
    <path d="M3.447,4.786C3.447,4.786 9.768,5.582 14.34,6.158C17.198,6.518 19.646,8.375 20.763,11.031C26.765,25.307 45.683,70.305 45.683,70.305" style="fill:none;stroke:white;stroke-width:5.57px;"/>
    <path d="M25.467,22.221C25.467,22.221 107.532,23.678 122.032,23.936C122.559,23.945 123.053,24.195 123.373,24.613C123.692,25.032 123.804,25.574 123.674,26.085C122.208,31.881 118.082,48.187 115.919,56.737C115.099,59.98 112.362,62.38 109.04,62.77C96.002,64.302 63.185,68.157 47.238,70.03C42.263,70.614 38.683,75.091 39.205,80.073C39.252,80.522 39.3,80.972 39.347,81.419C39.839,86.113 43.821,89.662 48.54,89.614C66.695,89.43 108.237,89.009 108.237,89.009" style="fill:none;stroke:white;stroke-width:5.57px;"/>
    <g transform="matrix(1.02294,0,0,1.02294,-1.21255,-2.87903)">
        <path d="M40.844,101.479C47.48,101.479 52.867,106.866 52.867,113.502C52.867,120.138 47.48,125.526 40.844,125.526C34.208,125.526 28.82,120.138 28.82,113.502C28.82,106.866 34.208,101.479 40.844,101.479ZM40.844,106.926C37.214,106.926 34.267,109.872 34.267,113.502C34.267,117.132 37.214,120.079 40.844,120.079C44.474,120.079 47.42,117.132 47.42,113.502C47.42,109.872 44.474,106.926 40.844,106.926Z" style="fill:white;"/>
    </g>
    <g transform="matrix(1.02294,0,0,1.02294,55.1609,-2.87903)">
        <path d="M40.844,101.479C47.48,101.479 52.867,106.866 52.867,113.502C52.867,120.138 47.48,125.526 40.844,125.526C34.208,125.526 28.82,120.138 28.82,113.502C28.82,106.866 34.208,101.479 40.844,101.479ZM40.844,106.926C37.214,106.926 34.267,109.872 34.267,113.502C34.267,117.132 37.214,120.079 40.844,120.079C44.474,120.079 47.42,117.132 47.42,113.502C47.42,109.872 44.474,106.926 40.844,106.926Z" style="fill:white;"/>
    </g>
</svg>
